#!OML:ASF E:/inclinewalkrobotboard/Project1/Captureday1/Session1/subject1.ASF
:FULLY-SPECIFIED
:DEGREES
201
root 0 0 0 -0.5120846630541992 -3.0159594584372176 -0.1978193708154703
lowerback 11.215176990517055 0.6348373279635963 0.4001985772096778
upperback -1.936843527306236 0.9279346571767851 0.49907501542025273
thorax -8.368748273499488 0.43204159511077167 0.11118897984884779
lowerneck -11.424566031083945 -0.6353374266322868 1.3424283754855755
upperneck 18.860442051877122 -0.25868923880985073 -3.8918538433910808
head 7.8255088471673835 -0.31809236367781635 -1.5670840054247008
rclavicle -5.486323137072934E-16 -6.203582566573661E-16
rhumerus -0.5221451478582111 0.9116186697025945 -60.209782169667776
rradius 53.34247634247302
rwrist 17.454800950069203
rhand -27.243187989106115 -23.43968133109898
rfingers 7.125019999999925
rthumb -0.8367408104575267 -53.577233624396484
lclavicle -4.90061175119637E-16 -6.937048919515308E-16
lhumerus -1.2845350660489174 -6.927620102592671 60.480453034162515
lradius 52.64795703304996
lwrist -11.138179642826728
lhand -37.27412328705202 -31.23782679077741
lfingers 7.12501999999992
lthumb -10.376166889286187 -1.6864572256811705
rfemur -21.38095855971907 -0.33985382647375095 19.54656126253419
rtibia 50.61082585905684
rfoot -22.764814154697227 -13.8508699132339
rtoes -12.221855208992121
lfemur -23.118621356795035 1.5450756563961392 -18.143245192170518
ltibia 50.11334047412734
lfoot -25.942887445944876 -3.6528406994819065
ltoes -16.711484522819926
202
root 0 0 0 -0.5101629840628186 -3.0165517865305884 -0.19595543688123263
lowerback 11.215875815641553 0.6351348184028228 0.3998049862279164
upperback -1.9392440843590741 0.928214642740103 0.4980046514716981
thorax -8.371828275238009 0.43213095304298255 0.11024821019309738
lowerneck -11.419469546116792 -0.6331609320756932 1.345608881288132
upperneck 18.860122566198562 -0.2554933736187526 -3.896024351456859
head 7.824583963479138 -0.31670230468622307 -1.5686756326528335
rclavicle -5.483239474696619E-16 -6.199249067949224E-16
rhumerus -0.5200698645271924 0.912708465096177 -60.20941464187255
rradius 53.3438212448405
rwrist 17.45519948033256
rhand -27.24349477139276 -23.441217307429675
rfingers 7.125019999999925
rthumb -0.8367626583875918 -53.57784951415351
lclavicle -4.899165332408474E-16 -6.930139105920317E-16
lhumerus -1.2860835580548198 -6.927129862100831 60.481560957117665
lradius 52.64454823254116
lwrist -11.137019937156307
lhand -37.2729265776567 -31.235282556927245
lfingers 7.12501999999992
lthumb -10.375363765025762 -1.6817162296475665
rfemur -21.381980398961264 -0.3405184231449825 19.545686611441013
rtibia 50.61230512413032
rfoot -22.76678030751047 -13.852197577507635
rtoes -12.224427166628981
lfemur -23.128893608858384 1.5475561911551685 -18.14194578916353
ltibia 50.12589312391287
lfoot -25.957651835842974 -3.653328489259265
ltoes -16.720485541511202
203
root 0 0 0 -0.5095267750855548 -3.0167782649352137 -0.19534170069619627
lowerback 11.21612419177378 0.6352529154198859 0.3996976059901699
upperback -1.9400663457573182 0.9283117171900864 0.49762527682826363
thorax -8.372873215974606 0.43216262440583064 0.10989225404219843
lowerneck -11.417705909577831 -0.6324415064540075 1.3466811848738354
upperneck 18.85999058017753 -0.25438570604478694 -3.8974576738457345
head 7.824249290214826 -0.31621389633758645 -1.5692069361852172
rclavicle -5.48378242979028E-16 -6.19831292324942E-16
rhumerus -0.5214082821052379 0.9118049166783866 -60.21026143595318
rradius 53.34254627277344
rwrist 17.45451984332005
rhand -27.243010361502144 -23.43903119467022
rfingers 7.125019999999925
rthumb -0.8362938691976458 -53.57574497730121
lclavicle -4.900083951663687E-16 -6.929380172367499E-16
lhumerus -1.2925220078107564 -6.9255537900580055 60.48608543585859
lradius 52.63950147304362
lwrist -11.13366869549914
lhand -37.27074990779429 -31.223935854958498
lfingers 7.12501999999992
lthumb -10.37330609259255 -1.6704304340917737
rfemur -21.383587014866325 -0.3415951718095185 19.544332457007084
rtibia 50.61478467679787
rfoot -22.769923158510643 -13.853693084180879
rtoes -12.227646856149324
lfemur -23.131397615105232 1.548145452266985 -18.141710676638613
ltibia 50.12859190685541
lfoot -25.961067883964773 -3.653373512638527
ltoes -16.72267657573805
204
root 0 0 0 -0.5093014476512909 -3.01684172607545 -0.19509034138152836
lowerback 11.216210699734948 0.635286440266251 0.39963370607364646
upperback -1.9403609804652064 0.9283310061592743 0.4974872725852995
thorax -8.37323088164509 0.4321721640536779 0.10977635240990719
lowerneck -11.417073302219148 -0.6321809563467989 1.3470573183633925
upperneck 18.859938342602717 -0.25398657412601167 -3.897965995998324
head 7.82412778604987 -0.31603719934324526 -1.5693972380553158
rclavicle -5.483463898628311E-16 -6.197469287965591E-16
rhumerus -0.5284309153236606 0.9071857529493652 -60.2144784525109
rradius 53.33613245423122
rwrist 17.451276336605055
rhand -27.24065869302864 -23.427799035186446
rfingers 7.125019999999925
rthumb -0.834095491220654 -53.564586199964666
lclavicle -4.901300635805529E-16 -6.928973200372299E-16
lhumerus -1.2998363012808714 -6.923810026254202 60.49124391668136
lradius 52.63388148842207
lwrist -11.129847975501143
lhand -37.268308556476526 -31.211184556101486
lfingers 7.12501999999992
lthumb -10.370974194607928 -1.6575580242658035
rfemur -21.385486011411622 -0.3427430940074987 19.542791680706294
rtibia 50.617276358700884
rfoot -22.773314799995703 -13.855349503655264
rtoes -12.231246215929584
lfemur -23.12856420561497 1.5474538296045839 -18.14200808395843
ltibia 50.12509987883651
lfoot -25.95710343677237 -3.6531889310336036
ltoes -16.720062784989008
205
root 0 0 0 -0.5122697486655508 -3.0159153070149443 -0.19803348513338992
lowerback 11.215105743282743 0.6348154651722948 0.40025935614547775
upperback -1.9366003506366143 0.9279242491679316 0.49918640465765535
thorax -8.368444540486111 0.4320347245011565 0.11127765840808668
lowerneck -11.425083289323526 -0.6355615385779985 1.3421083640009766
upperneck 18.860484960550476 -0.2590225105490911 -3.8914341857613386
head 7.825611537777718 -0.31823593573238773 -1.56692490201651
rclavicle -5.486218283110617E-16 -6.20377073384397E-16
rhumerus -0.5205988378911801 0.9126369161949341 -60.20885710857169
rradius 53.343889532599185
rwrist 17.455516335149436
rhand -27.243704480999128 -23.442150054460363
rfingers 7.125019999999925
rthumb -0.8372256782077683 -53.579682464173935
lclavicle -4.900458269823758E-16 -6.937115761388274E-16
lhumerus -1.2830777722120423 -6.927972107343873 60.4794311585403
lradius 52.64909042213169
lwrist -11.138937151674625
lhand -37.2746104277353 -31.240379714122867
lfingers 7.12501999999992
lthumb -10.376633400235551 -1.6890332816733604
rfemur -21.37931832390015 -0.3388443560500414 19.54790894787954
rtibia 50.608617926878125
rfoot -22.761841391851895 -13.849427442810843
rtoes -12.218716157888931
lfemur -23.120764564952662 1.545601327349503 -18.143021992414372
ltibia 50.1159799809615
lfoot -25.945909424793363 -3.652959388184441
ltoes -16.713461361262148
206
root 0 0 0 -0.5103008154553721 -3.016534090982178 -0.19613210660120362
lowerback 11.215823297204016 0.6351277010751415 0.39986501387274775
upperback -1.939063904259131 0.9282182463528798 0.498086163436922
thorax -8.37160090647132 0.43212798070057135 0.11030357641203609
lowerneck -11.41985708729748 -0.6333374164408369 1.3453682261938475
upperneck 18.860157523685164 -0.2557473395802259 -3.8957079015120657
head 7.824662442668419 -0.31680922383510657 -1.5685551565498552
rclavicle -5.483136543891533E-16 -6.199364492634467E-16
rhumerus -0.5189851039160658 0.9134268801637102 -60.20877240999881
rradius 53.34480710227291
rwrist 17.455692168544644
rhand -27.243854066925394 -23.44294134522446
rfingers 7.125019999999925
rthumb -0.8370980552737262 -53.579546537425685
lclavicle -4.899310035126815E-16 -6.930081108007283E-16
lhumerus -1.2867373958324233 -6.9269698933873425 60.48201314211758
lradius 52.64404601097322
lwrist -11.136682136549204
lhand -37.27271048455806 -31.23415029659993
lfingers 7.12501999999992
lthumb -10.375156647679054 -1.6805838770935075
rfemur -21.37996266311086 -0.33929343908366194 19.54733213985254
rtibia 50.60964252299055
rfoot -22.763159400088874 -13.850436873887901
rtoes -12.220603380507136
lfemur -23.130985682322773 1.5480656788079075 -18.141721068909796
ltibia 50.12843209403845
lfoot -25.960575958490622 -3.6534360055456307
ltoes -16.72238807967581
